<svg xmlns="http://www.w3.org/2000/svg" width="918.109" height="573.831" viewBox="0 0 918.109 573.831">
  <g id="undraw_destinations_fpv7" transform="translate(0.001 0)">
    <path id="Path_1" data-name="Path 1" d="M1025.992,327.157C992.3,194.686,875.9,99.06,739.265,95.224,667.03,93.2,591.019,117.154,535.677,200.988c-98.929,149.862,6.079,253.421,79.288,302.63a458.085,458.085,0,0,1,94.684,85.1c49.45,58.68,144.58,131.6,257.878,17.347C1049.648,523.256,1048.434,415.4,1025.992,327.157Z" transform="translate(-120.983 -95.108)" fill="#f2f2f2"/>
    <path id="Path_2" data-name="Path 2" d="M188.391,504.767c-.908-1.344-1.8-2.724-2.652-4.1l1.377-.852c.841,1.36,1.721,2.722,2.617,4.048Z" transform="translate(-61.947 -172.286)" fill="#3f3d56"/>
    <path id="Path_3" data-name="Path 3" d="M176.631,448.785c-1.5-2.946-2.9-5.99-4.147-9.047l1.5-.613c1.234,3.016,2.61,6.018,4.092,8.925Zm-7.53-18.406c-.993-3.151-1.866-6.383-2.6-9.607l1.579-.357c.719,3.18,1.58,6.369,2.559,9.477Zm-4.385-19.4c-.459-3.266-.788-6.6-.978-9.9l1.616-.093c.187,3.26.512,6.546.965,9.769Zm.471-19.812-1.618-.038c.078-3.308.293-6.648.639-9.927l1.61.17c-.341,3.235-.553,6.53-.63,9.795Zm2.062-19.5-1.59-.3c.616-3.246,1.376-6.506,2.259-9.689l1.56.432c-.871,3.141-1.621,6.356-2.229,9.559Zm5.242-18.9-1.518-.56c1.144-3.1,2.434-6.192,3.832-9.189l1.467.684c-1.38,2.957-2.652,6.007-3.781,9.065Zm221.67-5c-1.265-3-2.673-5.988-4.185-8.879l1.434-.75c1.532,2.931,2.96,5.958,4.242,9ZM180.79,334.983l-1.405-.8c1.639-2.867,3.419-5.7,5.291-8.43l1.334.916C184.164,329.356,182.407,332.154,180.79,334.983Zm204.283-4.6c-1.743-2.753-3.623-5.469-5.587-8.071l1.292-.975c1.991,2.638,3.9,5.39,5.662,8.18ZM191.9,318.806l-1.255-1.023c2.088-2.562,4.307-5.068,6.6-7.45l1.167,1.121C196.146,313.8,193.956,316.278,191.9,318.806Zm181.36-4.081c-2.171-2.433-4.469-4.806-6.831-7.052l1.116-1.173c2.393,2.277,4.723,4.681,6.923,7.147ZM205.493,304.662l-1.071-1.213c2.477-2.186,5.075-4.3,7.722-6.273l.968,1.3C210.5,300.423,207.937,302.506,205.493,304.662ZM359.04,301.2c-2.539-2.046-5.194-4.012-7.891-5.843l.909-1.34c2.734,1.856,5.424,3.848,8,5.922Zm-137.828-8.273-.858-1.372c2.8-1.753,5.71-3.409,8.643-4.923l.742,1.438C226.846,289.568,223.977,291.2,221.212,292.931ZM342.8,290.187c-2.844-1.6-5.785-3.108-8.743-4.469l.677-1.471c3,1.38,5.98,2.9,8.862,4.53Zm-104.17-6.247-.621-1.495c3.05-1.267,6.19-2.421,9.332-3.43l.495,1.541C244.741,281.551,241.644,282.69,238.635,283.939Zm86.342-1.953c-3.063-1.112-6.213-2.109-9.361-2.964l.424-1.562c3.191.866,6.383,1.877,9.489,3ZM257.3,277.945l-.365-1.577c3.214-.745,6.5-1.365,9.776-1.843l.234,1.6c-3.227.472-6.473,1.084-9.644,1.819Zm48.742-1.1c-3.2-.59-6.469-1.053-9.719-1.378l.161-1.611c3.294.33,6.608.8,9.851,1.4Zm-29.335-1.737-.1-1.615c3.292-.208,6.649-.282,9.947-.222l-.029,1.619c-3.257-.06-6.566.014-9.815.219Z" transform="translate(-57.719 -129.08)" fill="#3f3d56"/>
    <path id="Path_4" data-name="Path 4" d="M454.192,381.326c-.434-1.54-.9-3.093-1.4-4.615l1.539-.5c.5,1.543.98,3.117,1.419,4.678Z" transform="translate(-112.874 -148.715)" fill="#3f3d56"/>
    <path id="Path_5" data-name="Path 5" d="M441.946,269.38h-1.619c0-1.62.028-3.263.085-4.884l1.618.056C441.974,266.155,441.946,267.779,441.946,269.38Z" transform="translate(-110.497 -127.411)" fill="#3f3d56"/>
    <path id="Path_6" data-name="Path 6" d="M442.9,223.523l-1.61-.171c.347-3.26.816-6.546,1.395-9.767l1.593.286C443.706,217.054,443.242,220.3,442.9,223.523Zm3.446-19.181-1.568-.4c.81-3.177,1.747-6.362,2.783-9.467l1.536.512c-1.025,3.069-1.95,6.216-2.751,9.355Zm258.136-17.077c-1.21-3-2.545-6-3.967-8.907l1.454-.711c1.439,2.941,2.79,5.973,4.015,9.013Zm-251.965-1.419-1.495-.622c1.259-3.025,2.644-6.044,4.12-8.975l1.446.728c-1.458,2.9-2.828,5.88-4.071,8.869Zm243.4-16.087c-1.627-2.8-3.377-5.572-5.2-8.248l1.337-.912c1.847,2.708,3.617,5.516,5.264,8.346Zm-234.63-1.333-1.39-.83c1.677-2.81,3.481-5.6,5.361-8.289l1.327.927c-1.858,2.658-3.64,5.414-5.3,8.192Zm223.65-14.771c-2.013-2.541-4.141-5.038-6.324-7.424l1.193-1.093c2.21,2.414,4.363,4.942,6.4,7.512Zm-212.482-1.212-1.257-1.02c2.065-2.546,4.246-5.049,6.485-7.439l1.182,1.106C476.65,147.453,474.493,149.927,472.453,152.443Zm199.321-13.167c-2.353-2.228-4.814-4.4-7.316-6.451l1.026-1.251c2.532,2.077,5.023,4.273,7.4,6.527Zm-186-1.061-1.1-1.188c2.4-2.225,4.918-4.393,7.474-6.442l1.012,1.263c-2.527,2.025-5.012,4.167-7.386,6.366Zm170.922-11.3c-2.644-1.871-5.389-3.669-8.159-5.344l.838-1.385c2.8,1.7,5.581,3.515,8.256,5.407Zm-155.716-.887-.92-1.332c2.695-1.86,5.491-3.647,8.313-5.311l.822,1.394c-2.788,1.644-5.551,3.41-8.215,5.248Zm139.035-9.2c-2.885-1.474-5.86-2.86-8.841-4.121l.631-1.491c3.017,1.276,6.026,2.679,8.947,4.17Zm-122.253-.69-.72-1.449c2.932-1.456,5.954-2.823,8.983-4.065l.614,1.5c-2.992,1.227-5.979,2.578-8.877,4.017Zm104.3-6.9c-3.062-1.042-6.2-1.987-9.342-2.807l.409-1.566c3.175.829,6.356,1.785,9.454,2.84Zm-86.279-.479-.5-1.538c3.111-1.02,6.3-1.939,9.481-2.733l.392,1.57c-3.142.785-6.294,1.693-9.368,2.7ZM603.2,104.3c-3.183-.591-6.428-1.073-9.645-1.434l.18-1.608c3.256.366,6.54.854,9.761,1.451Zm-48.511-.266-.277-1.595c3.225-.562,6.513-1.013,9.774-1.343l.163,1.611c-3.222.325-6.473.772-9.659,1.327Zm29.142-1.91c-3.241-.132-6.536-.149-9.753-.053l-.049-1.618c3.255-.1,6.588-.08,9.868.054Z" transform="translate(-110.681 -96.115)" fill="#3f3d56"/>
    <path id="Path_7" data-name="Path 7" d="M772.023,223.694c-.433-1.54-.9-3.1-1.389-4.623l1.541-.493c.495,1.545.968,3.119,1.407,4.677Z" transform="translate(-173.487 -118.654)" fill="#3f3d56"/>
    <ellipse id="Ellipse_1" data-name="Ellipse 1" cx="26.96" cy="2.022" rx="26.96" ry="2.022" transform="translate(98.538 348.526)" fill="#6c63ff"/>
    <ellipse id="Ellipse_2" data-name="Ellipse 2" cx="26.96" cy="2.022" rx="26.96" ry="2.022" transform="translate(313.542 250.797)" fill="#6c63ff"/>
    <ellipse id="Ellipse_3" data-name="Ellipse 3" cx="26.96" cy="2.022" rx="26.96" ry="2.022" transform="translate(579.095 149.024)" fill="#6c63ff"/>
    <rect id="Rectangle_1" data-name="Rectangle 1" width="114.647" height="1.618" transform="translate(514.308 225.474) rotate(-45)" fill="#3f3d56"/>
    <rect id="Rectangle_2" data-name="Rectangle 2" width="136.147" height="1.619" transform="translate(354.656 235.834)" fill="#3f3d56"/>
    <rect id="Rectangle_3" data-name="Rectangle 3" width="107.689" height="1.618" transform="translate(253.661 323.017) rotate(-45)" fill="#3f3d56"/>
    <rect id="Rectangle_4" data-name="Rectangle 4" width="90.989" height="1.619" transform="translate(139.652 333.563)" fill="#3f3d56"/>
    <rect id="Rectangle_5" data-name="Rectangle 5" width="127.868" height="1.618" transform="translate(24.503 434.226) rotate(-45)" fill="#3f3d56"/>
    <path id="Path_8" data-name="Path 8" d="M184.321,519.708a14.963,14.963,0,1,1,14.963-14.963,14.963,14.963,0,0,1-14.963,14.963Zm0-28.308a13.345,13.345,0,1,0,13.345,13.345A13.345,13.345,0,0,0,184.321,491.4Z" transform="translate(-58.823 -170.373)" fill="#3f3d56"/>
    <path id="Path_9" data-name="Path 9" d="M331.728,519.708a14.963,14.963,0,1,1,14.963-14.963,14.963,14.963,0,0,1-14.963,14.963Zm0-28.308a13.345,13.345,0,1,0,13.345,13.345A13.345,13.345,0,0,0,331.728,491.4Z" transform="translate(-86.934 -170.373)" fill="#3f3d56"/>
    <path id="Path_10" data-name="Path 10" d="M449.987,398.95a14.963,14.963,0,1,1,14.963-14.963,14.963,14.963,0,0,1-14.963,14.963Zm0-28.308a13.345,13.345,0,1,0,13.345,13.345,13.345,13.345,0,0,0-13.345-13.345Z" transform="translate(-109.486 -147.344)" fill="#3f3d56"/>
    <path id="Path_11" data-name="Path 11" d="M653.193,398.95a14.963,14.963,0,1,1,14.963-14.963A14.963,14.963,0,0,1,653.193,398.95Zm0-28.308a13.345,13.345,0,1,0,13.345,13.345A13.345,13.345,0,0,0,653.193,370.643Z" transform="translate(-148.237 -147.344)" fill="#3f3d56"/>
    <path id="Path_12" data-name="Path 12" d="M778.115,273.2a14.963,14.963,0,1,1,14.963-14.963A14.963,14.963,0,0,1,778.115,273.2Zm0-28.308a13.345,13.345,0,1,0,13.345,13.345,13.344,13.344,0,0,0-13.345-13.345Z" transform="translate(-172.06 -123.363)" fill="#3f3d56"/>
    <path id="Path_13" data-name="Path 13" d="M47.74,656.289A14.963,14.963,0,1,1,62.7,641.326,14.964,14.964,0,0,1,47.74,656.289Zm0-28.308a13.345,13.345,0,1,0,13.344,13.345A13.345,13.345,0,0,0,47.74,627.981Z" transform="translate(-32.777 -196.419)" fill="#3f3d56"/>
    <path id="Path_14" data-name="Path 14" d="M181.494,399.173a26.96,26.96,0,0,0-26.96,26.96c0,14.889,26.96,64.029,26.96,64.029s26.96-49.14,26.96-64.029A26.96,26.96,0,0,0,181.494,399.173Zm0,41.114a14.154,14.154,0,1,1,14.154-14.154,14.154,14.154,0,0,1-14.154,14.154Z" transform="translate(-55.996 -153.094)" fill="#6c63ff"/>
    <path id="Path_15" data-name="Path 15" d="M447.16,274.251a26.96,26.96,0,0,0-26.959,26.96c0,14.89,26.96,64.03,26.96,64.03s26.96-49.14,26.96-64.029a26.96,26.96,0,0,0-26.96-26.96Zm0,41.114a14.154,14.154,0,1,1,14.154-14.154,14.154,14.154,0,0,1-14.154,14.154Z" transform="translate(-106.659 -129.271)" fill="#6c63ff"/>
    <path id="Path_16" data-name="Path 16" d="M1012.976,159.932c-5.706,16.895-14.456,32.288-32.288,32.288S949.4,177.735,948.4,159.931c-1.284-22.75,14.045-32.382,32.288-32.288C1002.236,127.755,1019.749,139.882,1012.976,159.932Z" transform="translate(-207.373 -101.312)" fill="#2f2e41"/>
    <rect id="Rectangle_7" data-name="Rectangle 7" width="63.727" height="80.721" transform="translate(741.026 56.07)" fill="#2f2e41"/>
    <path id="Path_17" data-name="Path 17" d="M1028.335,238.7h5.42a48.254,48.254,0,0,1,7.227,39.749c-6.023,22.886-1.2,27.1-1.2,27.1s7.841,24.784-.591,62.124S1047,415.161,1047,415.161l-15.057-30.113-8.432-79.5Z" transform="translate(-221.712 -122.491)" fill="#575a89"/>
    <path id="Path_18" data-name="Path 18" d="M1028.335,241.146h5.42a48.254,48.254,0,0,1,7.227,39.749c-6.023,22.886-1.2,27.1-1.2,27.1s7.841,24.784-.591,62.124S1047,417.609,1047,417.609L1031.948,387.5l-8.432-79.5Z" transform="translate(-221.712 -122.958)" opacity="0.1"/>
    <path id="Path_19" data-name="Path 19" d="M998.225,202.582s-4.818,19.272-2.409,19.272,10.841,10.238,10.841,10.238l5.42,19.875-4.216,14.454-14.454-3.011-18.068-19.875-5.42-5.42L965.1,220.65s6.023-7.227,1.807-13.25S998.225,202.582,998.225,202.582Z" transform="translate(-210.572 -115.585)" fill="#fbbebe"/>
    <path id="Path_20" data-name="Path 20" d="M998.225,202.582s-4.818,19.272-2.409,19.272,10.841,10.238,10.841,10.238l5.42,19.875-4.216,14.454-14.454-3.011-18.068-19.875-5.42-5.42L965.1,220.65s6.023-7.227,1.807-13.25S998.225,202.582,998.225,202.582Z" transform="translate(-210.572 -115.585)" opacity="0.1"/>
    <path id="Path_21" data-name="Path 21" d="M816.467,258.38,803.217,236.7s-14.3-31.646-24.541-20.2,15.507,34.657,15.507,34.657l13.25,17.466Z" transform="translate(-174.562 -117.781)" fill="#fbbebe"/>
    <path id="Path_22" data-name="Path 22" d="M1025.642,498.217,1016,568.682s1.2,5.42-10.841,25.295-44.568,63.238-44.568,63.238l-9.636-18.068s11.443-57.215,31.318-69.26l-2.409-86.726Z" transform="translate(-207.875 -169.11)" fill="#fbbebe"/>
    <path id="Path_23" data-name="Path 23" d="M1025.642,498.217,1016,568.682s1.2,5.42-10.841,25.295-44.568,63.238-44.568,63.238l-9.636-18.068s11.443-57.215,31.318-69.26l-2.409-86.726Z" transform="translate(-207.875 -169.11)" opacity="0.1"/>
    <path id="Path_24" data-name="Path 24" d="M943.723,666.973l13.25,25.295s-10.841,30.715-6.625,33.727,9.636,30.113-1.807,27.1-20.477-15.057-20.477-16.863,6.625-27.1,3.011-33.125-6.023-7.829-6.023-7.829l-9.034,15.057-3.011-1.807,15.057-25.295s1.807-4.818,9.034-7.829Z" transform="translate(-200.638 -204.164)" fill="#2f2e41"/>
    <path id="Path_25" data-name="Path 25" d="M943.723,666.973l13.25,25.295s-10.841,30.715-6.625,33.727,9.636,30.113-1.807,27.1-20.477-15.057-20.477-16.863,6.625-27.1,3.011-33.125-6.023-7.829-6.023-7.829l-9.034,15.057-3.011-1.807,15.057-25.295s1.807-4.818,9.034-7.829Z" transform="translate(-200.638 -204.164)" opacity="0.1"/>
    <path id="Path_26" data-name="Path 26" d="M975.611,488.22s4.677,66.61-5.561,84.076v86.726L956.2,660.828s-27.974-45.915-17.735-91.084-10.571-86.583-10.571-86.583Z" transform="translate(-203.476 -169.11)" fill="#fbbebe"/>
    <circle id="Ellipse_4" data-name="Ellipse 4" cx="25.295" cy="25.295" r="25.295" transform="translate(743.387 51.163)" fill="#fbbebe"/>
    <path id="Path_27" data-name="Path 27" d="M974.754,262.022l-25.3-31.92L935,220.466l-6.025,7.829-16.863,4.818s-10.841,2.409-22.284,15.659-31.92,21.079-31.92,21.079l-16.863-3.011s-19.875-9.034-19.875-11.443-17.466,16.261-13.25,23.488,13.25,16.261,18.068,21.079,6.625,18.67,36.136,14.454,40.352-18.67,40.352-18.67,5.42,27.7,21.079,33.124,66.851,9.034,66.851,9.034l10.841-36.136s12.045-15.659-4.216-38.545c0,0-.312-12.8-2.06-21.317-.68-3.313-1.577-5.978-2.758-6.99-4.216-3.614-26.5-9.636-26.5-9.636s3.614,12.045,5.42,12.648S977.158,259.01,974.754,262.022Z" transform="translate(-180.473 -119.014)" fill="#575a89"/>
    <path id="Path_28" data-name="Path 28" d="M911.708,466.524c30.33-2.108,47.988,2.861,55.866,6.649a19.974,19.974,0,0,1,4.107,2.493c.578.488.855.867.855,1.1,0,1.807,41.556,5.42,56.613,1.807s-10.238-81.305-16.863-87.93-3.053-30.872-3.053-30.872-13.208-2.855-16.821-1.65-22.284-1.807-28.909-5.42-15.057-1.2-20.477-2.409c-2.421-.536-3.644.367-4.252,1.536a10.413,10.413,0,0,1-4.119,4.162c-12.786,7.366-23.049,58.293-30.776,86.448C895.446,473.149,911.708,466.524,911.708,466.524Z" transform="translate(-198.434 -143.741)" fill="#2f2e41"/>
    <path id="Path_29" data-name="Path 29" d="M978.1,693.763l2.409,13.25s12.651,18.068,9.034,33.125c0,0,3.011,19.875,13.852,25.3s1.807,18.068-8.432,17.466-19.875.6-21.079-2.409-8.432-32.522-8.432-32.522L963.47,782.5l-6.023.6,1.977-39.954s-4.818-9.034,1.807-24.091l-1.672-23.112S976.288,699.786,978.1,693.763Z" transform="translate(-209.113 -209.272)" fill="#2f2e41"/>
    <path id="Path_30" data-name="Path 30" d="M983.154,493.432a19.968,19.968,0,0,1,4.107,2.493c.319-5.691,2.162-40.111-.048-39.557Z" transform="translate(-214.015 -164)" opacity="0.1"/>
    <path id="Path_31" data-name="Path 31" d="M962.132,145.968s-.28-1.559-11.236,2.549-17.523,34.427-12.045,52.231c2.208,7.175.412,12.348-2.519,15.967-11,13.582-6.669,33.983,9.352,40.967q.678.3,1.384.585l6.848,4.108s-8.729-11.486-4.361-26.178a75.329,75.329,0,0,0,1.359-38.563c-.5-2.152-1.07-4.369-1.717-6.633-5.478-19.173-2.814-16.959,16.359-36.132,0,0,10.956,8.217,20.542,12.326s17.8,8.217,10.956,21.912-23.281,26.021-12.326,43.824,12.326,10.956,10.956,17.8h0l-1.37,6.847,8.217-8.217-5.478,10.956s17.8,0,23.281-13.7l2.739,2.739s10.956-19.173-9.587-36.977c0,0-6.848-4.109,2.739-17.8s2.224-43.139-10.1-48.617S962.132,145.968,962.132,145.968Z" transform="translate(-203.923 -104.343)" fill="#2f2e41"/>
    <circle id="Ellipse_5" data-name="Ellipse 5" cx="12.745" cy="12.745" r="12.745" transform="translate(760.569 7.638)" fill="#2f2e41"/>
    <path id="Path_32" data-name="Path 32" d="M968.813,108.892a12.746,12.746,0,0,1,11.47-12.681c-.418-.042-.843-.064-1.274-.064a12.745,12.745,0,1,0,0,25.491c.43,0,.855-.023,1.274-.064A12.746,12.746,0,0,1,968.813,108.892Z" transform="translate(-210.794 -95.306)" fill="#2f2e41"/>
    <path id="Path_33" data-name="Path 33" d="M775.288,154.326a26.96,26.96,0,0,0-26.96,26.96c0,14.889,26.96,64.029,26.96,64.029s26.96-49.14,26.96-64.029a26.96,26.96,0,0,0-26.96-26.96Zm0,41.114a14.154,14.154,0,1,1,14.154-14.154,14.154,14.154,0,0,1-14.154,14.154Z" transform="translate(-169.233 -106.401)" fill="#6c63ff"/>
    <circle id="Ellipse_6" data-name="Ellipse 6" cx="14.588" cy="14.588" r="14.588" transform="translate(374.134 520.377)" fill="#f1f1f1"/>
    <circle id="Ellipse_7" data-name="Ellipse 7" cx="14.588" cy="14.588" r="14.588" transform="translate(464.895 458.672)" fill="#f1f1f1"/>
    <circle id="Ellipse_8" data-name="Ellipse 8" cx="14.588" cy="14.588" r="14.588" transform="translate(352.655 401.217)" fill="#f1f1f1"/>
  </g>
</svg>
